<?xml version="1.0" standalone="no"?><!DOCTYPE svg PUBLIC "-//W3C//DTD SVG 1.1//EN" "http://www.w3.org/Graphics/SVG/1.1/DTD/svg11.dtd"><svg class="icon" width="200px" height="200.00px" viewBox="0 0 1024 1024" version="1.1" xmlns="http://www.w3.org/2000/svg"><path d="M631.37 422c7.53 0 15.09-2.82 20.91-8.49l189.96-184.86-0.75 134.82c-0.09 16.59 13.26 30.09 29.82 30.18 0.06 0 0.12 0 0.18 0 16.5 0 29.91-13.32 30-29.82l1.17-208.32c0-0.63-0.33-1.17-0.36-1.8 0.03-0.48 0.27-0.84 0.27-1.32 0.03-16.56-13.38-30-29.97-30.03L661.58 122l-0.03 0c-16.56 0-29.97 13.41-30 29.97C631.52 168.53 644.96 182 661.52 182l142.38 0.21-193.47 188.25c-11.88 11.55-12.12 30.57-0.6 42.42C615.74 418.94 623.54 422 631.37 422zM872.03 631.58L872.03 631.58c-16.59 0-30 13.41-30.03 29.97l-0.21 142.38-188.28-193.5c-11.55-11.85-30.54-12.15-42.42-0.6-11.88 11.58-12.12 30.57-0.6 42.42l184.86 189.96-134.82-0.75c-0.06 0-0.12 0-0.18 0-16.5 0-29.91 13.32-30 29.82-0.09 16.59 13.26 30.09 29.82 30.18l208.35 1.17c0.06 0 0.12 0 0.18 0 0.6 0 1.05-0.3 1.65-0.33 0.48 0.03 0.84 0.27 1.32 0.27l0.03 0c16.56 0 29.97-13.41 30-29.97L902 661.61C902.03 645.08 888.62 631.61 872.03 631.58zM228.65 181.76l134.82 0.75c0.06 0 0.12 0 0.18 0 16.5 0 29.91-13.32 30-29.82 0.09-16.59-13.26-30.09-29.82-30.18L155.45 121.37c-0.06 0-0.12 0-0.18 0-0.63 0-1.17 0.33-1.77 0.36-0.42 0-0.75-0.24-1.17-0.24 0 0-0.03 0-0.03 0-16.56 0-29.97 13.41-30 29.97L122 362.42c-0.03 16.56 13.38 30 29.97 30.03 0 0 0.03 0 0.03 0 16.56 0 29.97-13.41 30-29.97l0.21-142.44 188.28 193.5c5.88 6.06 13.71 9.09 21.51 9.09 7.53 0 15.09-2.82 20.91-8.49 11.88-11.55 12.15-30.57 0.6-42.42L228.65 181.76zM371.72 610.49l-189.96 184.86 0.75-134.82c0.09-16.59-13.26-30.09-29.82-30.18-0.06 0-0.12 0-0.18 0-16.5 0-29.91 13.32-30 29.82l-1.17 208.35c0 0.66 0.33 1.23 0.36 1.89 0 0.42-0.24 0.78-0.24 1.23-0.03 16.56 13.38 30 29.97 30.03L362.42 902c0 0 0.03 0 0.03 0 16.56 0 29.97-13.41 30-29.97s-13.38-30-29.97-30.03l-142.44-0.21 193.5-188.28c11.88-11.58 12.15-30.57 0.6-42.42S383.57 598.91 371.72 610.49z" fill="#272636" /></svg>