<?xml version="1.0" standalone="no"?><!DOCTYPE svg PUBLIC "-//W3C//DTD SVG 1.1//EN" "http://www.w3.org/Graphics/SVG/1.1/DTD/svg11.dtd"><svg class="icon" width="200px" height="200.00px" viewBox="0 0 1024 1024" version="1.1" xmlns="http://www.w3.org/2000/svg"><path d="M894.5 433.25L565.4375 163.25c-28.125-22.5-75.9375-22.5-104.0625 0L129.5 436.0625c-11.25 5.625-14.0625 19.6875-8.4375 30.9375 2.8125 11.25 14.0625 16.875 25.3125 16.875h28.125v320.625C174.5 846.6875 205.4375 877.625 247.625 877.625H427.625c16.875 0 28.125-11.25 28.125-28.125v-129.375c0-19.6875 30.9375-39.375 56.25-39.375 25.3125 0 59.0625 19.6875 59.0625 39.375V849.5c0 16.875 11.25 28.125 28.125 28.125h182.8125c42.1875 0 70.3125-28.125 70.3125-73.125V483.875h28.125c11.25 0 22.5-8.4375 25.3125-19.6875 2.8125-11.25 0-22.5-11.25-30.9375z" /></svg>