<?xml version="1.0" standalone="no"?><!DOCTYPE svg PUBLIC "-//W3C//DTD SVG 1.1//EN" "http://www.w3.org/Graphics/SVG/1.1/DTD/svg11.dtd"><svg class="icon" width="200px" height="200.00px" viewBox="0 0 1024 1024" version="1.1" xmlns="http://www.w3.org/2000/svg"><path d="M240 480c0 4.65-1.50000001 8.50000001-4.50000001 11.50000001l-143.99999998 143.99999998c-3 3-6.85 4.50000001-11.50000001 4.50000001-4.35 0-8.10000001-1.60000001-11.25-4.75s-4.75-6.90000001-4.75-11.25V336c0-4.35 1.60000001-8.10000001 4.75-11.25s6.90000001-4.75 11.25-4.75c4.65 0 8.50000001 1.50000001 11.50000001 4.50000001l144 143.99999998c3 3 4.50000001 6.85 4.49999999 11.50000001z m720 240v96c0 4.35-1.60000001 8.10000001-4.75 11.25s-6.90000001 4.75-11.25 4.75H80c-4.35 0-8.10000001-1.60000001-11.25-4.75s-4.75-6.90000001-4.75-11.25v-96c0-4.35 1.60000001-8.10000001 4.75-11.25s6.90000001-4.75 11.25-4.75h864c4.35 0 8.10000001 1.60000001 11.25 4.75s4.75 6.90000001 4.75 11.25z m0-192v96c0 4.35-1.60000001 8.10000001-4.75 11.25s-6.90000001 4.75-11.25 4.75H400c-4.35 0-8.10000001-1.60000001-11.25-4.75s-4.75-6.90000001-4.75-11.25v-96c0-4.35 1.60000001-8.10000001 4.75-11.25s6.90000001-4.75 11.25-4.75h544c4.35 0 8.10000001 1.60000001 11.25 4.75s4.75 6.90000001 4.75 11.25z m0-192v96c0 4.35-1.60000001 8.10000001-4.75 11.25s-6.90000001 4.75-11.25 4.75H400c-4.35 0-8.10000001-1.60000001-11.25-4.75S384 436.35 384 432V336c0-4.35 1.60000001-8.10000001 4.75-11.25s6.90000001-4.75 11.25-4.75h544c4.35 0 8.10000001 1.60000001 11.25 4.75s4.75 6.90000001 4.75 11.25z m0-192v96c0 4.35-1.60000001 8.10000001-4.75 11.25s-6.90000001 4.75-11.25 4.75H80c-4.35 0-8.10000001-1.60000001-11.25-4.75S64 244.35 64 240V144c0-4.35 1.60000001-8.10000001 4.75-11.25s6.90000001-4.75 11.25-4.75h864c4.35 0 8.10000001 1.60000001 11.25 4.75s4.75 6.90000001 4.75 11.25z" /></svg>