<?xml version="1.0" standalone="no"?><!DOCTYPE svg PUBLIC "-//W3C//DTD SVG 1.1//EN" "http://www.w3.org/Graphics/SVG/1.1/DTD/svg11.dtd"><svg class="icon" width="200px" height="199.80px" viewBox="0 0 1025 1024" version="1.1" xmlns="http://www.w3.org/2000/svg"><path d="M138.7332394 318.96824444c-0.08942761 5.18173242 1.7978302 10.39552322 5.68286388 14.41722877l318.16105308 329.2922439c20.68812049 21.41113348 54.93800281 22.00084882 76.35082379 1.31357125 0.10376971-0.10039472 0.20669568-0.201634 0.30877789-0.30455997l327.26831507-330.02453732c7.8738371-7.94048593 7.82068661-20.76067475-0.12064308-28.63451184-7.94048593-7.8738371-20.76151849-7.81984286-28.63535559 0.12064307L510.66636461 634.98556936c-2.57736787 2.42972809-5.9401788 3.73233225-9.48859333 3.67158884-3.60494-0.06158716-6.9702822-1.52448569-9.47593872-4.11703857L173.54077867 305.24703116c-7.77091114-8.04172439-20.58856869-8.26191843-28.63113685-0.49269479C140.88877922 308.63937006 138.822667 313.78735578 138.7332394 318.96824444z" /></svg>