<?xml version="1.0" standalone="no"?><!DOCTYPE svg PUBLIC "-//W3C//DTD SVG 1.1//EN" "http://www.w3.org/Graphics/SVG/1.1/DTD/svg11.dtd"><svg class="icon" width="200px" height="200.00px" viewBox="0 0 1024 1024" version="1.1" xmlns="http://www.w3.org/2000/svg"><path d="M333.14133333 429.62488889c-32.88177778 0-59.392-26.624-59.392-59.392 0-32.88177778 26.624-59.392 59.392-59.392 32.88177778 0 59.392 26.624 59.392 59.392 0 32.768-26.624 59.392-59.392 59.392zM164.63644445 166.22933333h693.47555555c27.30666667 0 49.49333333 22.18666667 49.49333333 49.49333334v594.48888888c0 27.30666667-22.18666667 49.49333333-49.49333333 49.49333334H164.63644445c-27.30666667 0-49.49333333-22.18666667-49.49333334-49.49333334V215.83644445c0-27.42044445 22.18666667-49.60711111 49.49333334-49.60711112z m693.58933333 484.352V240.52622222c0-13.65333333-11.03644445-24.80355555-24.80355556-24.80355555h-643.98222222c-13.65333333 0-24.80355555 11.03644445-24.80355555 24.80355555V772.55111111l204.11733333-244.84977778c8.76088889-10.46755555 24.34844445-11.94666667 34.92977777-3.18577778 2.50311111 2.048 4.55111111 4.66488889 6.144 7.62311112L511.43111111 727.04l185.68533334-291.72622222c7.39555555-11.49155555 22.64177778-14.90488889 34.2471111-7.62311111 3.52711111 2.27555555 6.37155555 5.23377778 8.41955556 8.87466666l118.44266667 214.016z" /></svg>