<?xml version="1.0" standalone="no"?><!DOCTYPE svg PUBLIC "-//W3C//DTD SVG 1.1//EN" "http://www.w3.org/Graphics/SVG/1.1/DTD/svg11.dtd"><svg class="icon" width="200px" height="200.00px" viewBox="0 0 1024 1024" version="1.1" xmlns="http://www.w3.org/2000/svg"><path d="M516.99493408 144.50732422c118.08956909 55.44607544 212.68350219 86.23718262 283.78097535 92.37579346C815.47396851 238.15039062 826.75830078 250.45150757 826.75830078 265.203125v274.8482666C801.76467896 705.58459473 698.21826172 818.73114013 516.11987305 879.49267578c-184.45001221-60.98977661-287.99642945-174.13632202-310.63842774-339.44046021V265.76342773c0-14.96337891 11.59909057-27.36419677 26.52786255-28.36367797 73.59164429-4.92736817 168.58685302-35.89068604 284.98562622-92.89160156z m1.01925659 147.75512695c-67.00561523 0-121.22479248 54.76052857-121.22479247 122.19049073 0 58.64227295 41.00674438 107.70172119 95.76727294 119.49362182l0.8338623 173.2835083 0.0098877 0.58172608c0.37243653 13.33026123 11.32717896 23.99002075 24.7315979 23.92575073 13.59970093-0.06591797 24.57092286-11.14343262 24.50500489-24.74395752L542.48706055 675.88113403l43.77941895-0.11288452 0.58090209-0.00823974c13.33026123-0.34277344 24.01391602-11.27444458 23.97930908-24.68051148-0.03543091-13.6005249-11.08822632-24.59729003-24.68710327-24.56268311l-43.88900756 0.11288453-0.10958862-22.81915283 44.12548827-0.11288453 0.5809021-0.00823974c13.33026123-0.34359742 24.01391602-11.27526855 23.97930908-24.68133545-0.03543091-13.6005249-11.08822632-24.59729003-24.68710327-24.5626831l-44.2350769 0.11370849-0.09640503-20.2664795c55.59191894-11.14837646 97.43087768-60.60580445 97.43087768-119.83886718 0-67.43078613-54.22000122-122.19131469-121.22479247-122.1913147z m0 49.25143433c39.69744873 0 71.97665406 32.60220337 71.97665406 72.9390564 0 37.741333-28.25738526 68.71124268-64.41009522 72.54107666a24.50665283 24.50665283 0 0 0-8.631958-1.51446533c-2.77679443 0.01400757-5.44482422 0.48614502-7.93075562 1.34555053-35.46551513-4.4815979-62.98132324-35.12933349-62.98132324-72.37216186 0-40.33685302 32.2800293-72.9390564 71.97747802-72.9390564z" /></svg>