<?xml version="1.0" standalone="no"?><!DOCTYPE svg PUBLIC "-//W3C//DTD SVG 1.1//EN" "http://www.w3.org/Graphics/SVG/1.1/DTD/svg11.dtd"><svg class="icon" width="200px" height="200.00px" viewBox="0 0 1024 1024" version="1.1" xmlns="http://www.w3.org/2000/svg"><path d="M882.78857422 743.74285888v-46.34857177h-41.25022888a120.50628662 120.50628662 0 0 0-20.8568573-49.12948609l28.7361145-29.66308594-27.80914306-28.27262878-29.19960023 29.66308594A116.33491516 116.33491516 0 0 0 743.74285888 600.06228638V558.34857177h-46.34857177v41.25022889a120.50628662 120.50628662 0 0 0-49.12948609 20.8568573l-29.66308594-28.7361145-28.27262878 27.80914307 29.66308594 29.19960021A116.33491516 116.33491516 0 0 0 600.06228638 697.39428711H558.34857177v46.34857177h41.25022889a120.50628662 120.50628662 0 0 0 20.8568573 49.12948609l-28.7361145 29.66308594 27.80914307 28.27262878 29.19960021-29.66308594A116.33491516 116.33491516 0 0 0 697.39428711 841.07485962v41.7137146h46.34857177v-41.25022888a120.50628662 120.50628662 0 0 0 49.12948609-20.8568573l29.66308594 28.7361145 28.27262878-27.80914307-29.66308594-29.19960022A116.33491516 116.33491516 0 0 0 841.07485962 743.74285888z m-162.22000122 37.54234315A60.71662903 60.71662903 0 1 1 781.28520203 720.568573 60.71662903 60.71662903 0 0 1 720.568573 781.28520203zM512 141.21142578a173.34365844 173.34365844 0 1 0 173.34365844 173.34365844A173.34365844 173.34365844 0 0 0 512 141.21142578zM141.21142578 858.6873169V882.78857422h429.18777466a254.91714477 254.91714477 0 0 1 57.93571472-375.88691711A370.78857422 370.78857422 0 0 0 141.21142578 858.6873169z" /></svg>