<?xml version="1.0" standalone="no"?><!DOCTYPE svg PUBLIC "-//W3C//DTD SVG 1.1//EN" "http://www.w3.org/Graphics/SVG/1.1/DTD/svg11.dtd"><svg class="icon" width="200px" height="166.78px" viewBox="0 0 1228 1024" version="1.1" xmlns="http://www.w3.org/2000/svg"><path d="M939.1484375 188.89469159H410.55239093a59.47463214 59.47463214 0 0 0-59.1777116 59.1777116c0 32.5555265 26.69677734 59.25230384 59.1777116 59.25230384h528.59604657c32.5555265 0 59.25230384-26.69677734 59.25230384-59.25230384a59.47463214 59.47463214 0 0 0-59.25230384-59.1777116z m0 264.14992511H410.55239093a59.47463214 59.47463214 0 0 0-59.1777116 59.25230384c0 32.55480231 26.69677734 59.25157965 59.1777116 59.25157965h528.59604657c32.5555265 0 59.25230384-26.69677734 59.25230384-59.32617188a59.47463214 59.47463214 0 0 0-59.25230384-59.17771161z m0 266.52311683H410.55239093a59.47463214 59.47463214 0 0 0-59.1777116 59.25157964c0 32.48093426 26.69677734 59.17771161 59.1777116 59.17771161h528.59604657c32.5555265 0 59.25230384-26.69677734 59.25230384-59.17771161a59.47463214 59.47463214 0 0 0-59.25230384-59.32617188zM232.1284945 189.78472901a58.58459473 58.58459473 0 0 0-58.36154222 58.43613446v1.63161455a58.58459473 58.58459473 0 0 0 58.36154222 58.43613447 58.58459473 58.58459473 0 0 0 58.43685866-58.43613447v-1.63161455a58.58459473 58.58459473 0 0 0-58.43685866-58.43613446z m0 264.22379314a58.58459473 58.58459473 0 0 0-58.36154222 58.36226642v1.70548261a58.58459473 58.58459473 0 0 0 58.36154222 58.36226642 58.58459473 58.58459473 0 0 0 58.43685866-58.36226642v-1.70548261a58.58459473 58.58459473 0 0 0-58.43685866-58.36226642z m0 266.4485246a58.58459473 58.58459473 0 0 0-58.28767419 58.51072669v1.63161456a58.58459473 58.58459473 0 0 0 58.36226642 58.43613446 58.58459473 58.58459473 0 0 0 58.43613446-58.43613446v-1.63161456a58.58459473 58.58459473 0 0 0-58.43613446-58.43613446z" /></svg>