<?xml version="1.0" standalone="no"?><!DOCTYPE svg PUBLIC "-//W3C//DTD SVG 1.1//EN" "http://www.w3.org/Graphics/SVG/1.1/DTD/svg11.dtd"><svg class="icon" width="200px" height="200.00px" viewBox="0 0 1024 1024" version="1.1" xmlns="http://www.w3.org/2000/svg"><path d="M616.91503906 432.8984375c6.61816406 0 13.26269531-2.47851563 18.37792969-7.46191406l166.95703125-162.47460938-0.65917969 118.49414063c-0.07910156 14.58105469 11.65429688 26.44628906 26.20898438 26.52539062 0.05273438 0 0.10546875 0 0.15820312 0 14.50195313 0 26.28808594-11.70703125 26.3671875-26.20898437l1.02832031-183.09375c0-0.55371094-0.29003906-1.02832031-0.31640625-1.58203125 0.02636719-0.421875 0.23730469-0.73828125 0.23730469-1.16015625 0.02636719-14.5546875-11.75976563-26.3671875-26.34082031-26.39355469L643.46679688 169.2265625l-0.02636719 0c-14.5546875 0-26.34082031 11.78613281-26.3671875 26.34082031C617.046875 210.12207031 628.859375 221.9609375 643.4140625 221.9609375l125.13867187 0.18457031-170.04199218 165.45410157c-10.44140625 10.15136719-10.65234375 26.86816406-0.52734375 37.28320312C603.17773438 430.20898437 610.03320313 432.8984375 616.91503906 432.8984375zM828.43261719 617.09960938L828.43261719 617.09960938c-14.58105469 0-26.3671875 11.78613281-26.39355469 26.34082031l-0.18457031 125.13867187-165.48046875-170.06835937c-10.15136719-10.41503906-26.84179688-10.67871094-37.28320313-0.52734375-10.44140625 10.17773438-10.65234375 26.86816406-0.52734375 37.28320312l162.47460938 166.95703125-118.49414063-0.65917969c-0.05273438 0-0.10546875 0-0.15820312 0-14.50195313 0-26.28808594 11.70703125-26.3671875 26.20898438-0.07910156 14.58105469 11.65429688 26.44628906 26.20898437 26.52539062l183.12011719 1.02832032c0.05273438 0 0.10546875 0 0.15820313 0 0.52734375 0 0.92285156-0.26367188 1.45019531-0.29003907 0.421875 0.02636719 0.73828125 0.23730469 1.16015625 0.23730469l0.02636719 0c14.5546875 0 26.34082031-11.78613281 26.3671875-26.34082031L854.7734375 643.49316406C854.79980469 628.96484375 843.01367188 617.12597656 828.43261719 617.09960938zM262.96191406 221.75l118.49414063 0.65917969c0.05273438 0 0.10546875 0 0.15820312 0 14.50195313 0 26.28808594-11.70703125 26.3671875-26.20898438 0.07910156-14.58105469-11.65429688-26.44628906-26.20898437-26.52539062L198.62597656 168.67285156c-0.05273438 0-0.10546875 0-0.15820312 0-0.55371094 0-1.02832031 0.29003906-1.55566407 0.31640625-0.36914063 0-0.65917969-0.2109375-1.02832031-0.2109375 0 0-0.02636719 0-0.02636719 0-14.5546875 0-26.34082031 11.78613281-26.3671875 26.34082031L169.2265625 380.53320312c-0.02636719 14.5546875 11.75976563 26.3671875 26.34082031 26.39355469 0 0 0.02636719 0 0.02636719 0 14.5546875 0 26.34082031-11.78613281 26.3671875-26.34082031l0.18457031-125.19140625 165.48046875 170.06835938c5.16796875 5.32617188 12.04980469 7.98925781 18.90527344 7.98925781 6.61816406 0 13.26269531-2.47851563 18.37792969-7.46191407 10.44140625-10.15136719 10.67871094-26.86816406 0.52734375-37.28320312L262.96191406 221.75zM388.70703125 598.56347656l-166.95703125 162.47460938 0.65917969-118.49414063c0.07910156-14.58105469-11.65429688-26.44628906-26.20898438-26.52539062-0.05273438 0-0.10546875 0-0.15820312 0-14.50195313 0-26.28808594 11.70703125-26.3671875 26.20898437l-1.02832031 183.12011719c0 0.58007813 0.29003906 1.08105469 0.31640625 1.66113281 0 0.36914063-0.2109375 0.68554688-0.2109375 1.08105469-0.02636719 14.5546875 11.75976563 26.3671875 26.34082031 26.39355469L380.53320312 854.7734375c0 0 0.02636719 0 0.02636719 0 14.5546875 0 26.34082031-11.78613281 26.3671875-26.34082031s-11.75976563-26.3671875-26.34082031-26.39355469l-125.19140625-0.18457031 170.06835938-165.48046875c10.44140625-10.17773438 10.67871094-26.86816406 0.52734374-37.28320313S399.12207031 588.38574219 388.70703125 598.56347656z" /></svg>