<?xml version="1.0" standalone="no"?><!DOCTYPE svg PUBLIC "-//W3C//DTD SVG 1.1//EN" "http://www.w3.org/Graphics/SVG/1.1/DTD/svg11.dtd"><svg class="icon" width="200px" height="200.00px" viewBox="0 0 1024 1024" version="1.1" xmlns="http://www.w3.org/2000/svg"><path d="M287.87890625 485.6328125c0 3.83148193-1.23596192 7.00378418-3.70788575 9.47570801l-118.65234374 118.65234374c-2.47192383 2.47192383-5.64422607 3.70788575-9.47570801 3.70788575-3.58428955 0-6.67419434-1.31835938-9.26971435-3.9138794s-3.9138794-5.68542481-3.9138794-9.26971435V366.98046875c0-3.58428955 1.31835938-6.67419434 3.9138794-9.26971435s5.68542481-3.9138794 9.26971435-3.9138794c3.83148193 0 7.00378418 1.23596192 9.47570801 3.70788575l118.65234375 118.65234374c2.47192383 2.47192383 3.70788575 5.64422607 3.70788574 9.47570801z m593.26171875 197.75390625v79.1015625c0 3.58428955-1.31835938 6.67419434-3.9138794 9.26971435s-5.68542481 3.9138794-9.26971435 3.9138794H156.04296875c-3.58428955 0-6.67419434-1.31835938-9.26971435-3.9138794s-3.9138794-5.68542481-3.9138794-9.26971435v-79.1015625c0-3.58428955 1.31835938-6.67419434 3.9138794-9.26971435s5.68542481-3.9138794 9.26971435-3.9138794h711.9140625c3.58428955 0 6.67419434 1.31835938 9.26971435 3.9138794s3.9138794 5.68542481 3.9138794 9.26971435z m0-158.203125v79.1015625c0 3.58428955-1.31835938 6.67419434-3.9138794 9.26971435s-5.68542481 3.9138794-9.26971435 3.9138794H419.71484375c-3.58428955 0-6.67419434-1.31835938-9.26971435-3.9138794s-3.9138794-5.68542481-3.9138794-9.26971435v-79.1015625c0-3.58428955 1.31835938-6.67419434 3.9138794-9.26971435s5.68542481-3.9138794 9.26971435-3.9138794h448.2421875c3.58428955 0 6.67419434 1.31835938 9.26971435 3.9138794s3.9138794 5.68542481 3.9138794 9.26971435z m0-158.203125v79.1015625c0 3.58428955-1.31835938 6.67419434-3.9138794 9.26971435s-5.68542481 3.9138794-9.26971435 3.9138794H419.71484375c-3.58428955 0-6.67419434-1.31835938-9.26971435-3.9138794S406.53125 449.6663208 406.53125 446.08203125V366.98046875c0-3.58428955 1.31835938-6.67419434 3.9138794-9.26971435s5.68542481-3.9138794 9.26971435-3.9138794h448.2421875c3.58428955 0 6.67419434 1.31835938 9.26971435 3.9138794s3.9138794 5.68542481 3.9138794 9.26971435z m0-158.203125v79.1015625c0 3.58428955-1.31835938 6.67419434-3.9138794 9.26971435s-5.68542481 3.9138794-9.26971435 3.9138794H156.04296875c-3.58428955 0-6.67419434-1.31835938-9.26971435-3.9138794S142.859375 291.4631958 142.859375 287.87890625V208.77734375c0-3.58428955 1.31835938-6.67419434 3.9138794-9.26971435s5.68542481-3.9138794 9.26971435-3.9138794h711.9140625c3.58428955 0 6.67419434 1.31835938 9.26971435 3.9138794s3.9138794 5.68542481 3.9138794 9.26971435z" /></svg>