<?xml version="1.0" standalone="no"?><!DOCTYPE svg PUBLIC "-//W3C//DTD SVG 1.1//EN" "http://www.w3.org/Graphics/SVG/1.1/DTD/svg11.dtd"><svg class="icon" width="200px" height="200.00px" viewBox="0 0 1024 1024" version="1.1" xmlns="http://www.w3.org/2000/svg"><path d="M461.67869361 592.33752442q-0.4414153 1.32424512-5.51768702-0.22070727T442.25643507 587.04054467l-8.82829982-3.97273461q-19.42225854-8.82829906-38.40310179-21.6293335-3.08990479-2.20707496-18.09801418-13.90457153T360.15325022 534.95357863q-29.57480273 45.46574195-59.14960544 79.89610911-35.75461229 41.93442187-46.34857177 48.55564673-1.76565967 0.88282983-8.6075918 1.76565967t-8.16617726 0q2.64848948-1.76565967 36.19602759-40.61017674 9.26971435-10.59395948 37.74097999-50.7627217T346.46938673 521.71112966q7.5040547-13.24244897 22.51216333-43.47937503t15.89093845-34.2096599q-3.53132008-0.4414153-48.55564596 14.56669409-3.53132008 0.88282983-12.13891188 3.31061205T308.94911401 466.09284352t-7.5040547 2.20707419q-0.88282983 0.88282983-0.88282983 4.63485717t-0.44141453 4.19344266q-2.20707496 4.41414991-13.68386427 6.62122409-10.15254418 3.08990479-20.74650366 0-7.94546923-1.76565967-12.35961914-9.26971436-1.76565967-2.64848948-2.20707496-10.15254417 2.64848948-0.88282983 10.81466674-2.20707497t13.02174171-2.64848948q25.60206811-7.06263939 46.34857178-14.1252788 44.14149682-15.44952393 45.02432665-15.44952392 4.41414991-0.88282983 18.98084401-8.60759179t19.42225854-9.4904224q3.97273462-1.32424512 9.49042162-3.53131931t6.40051759-2.42778222 2.6484895 0.22070726q0.88282983 5.29697974-0.44141453 14.5666941 0 0.88282983-5.51768778 11.91820384T405.61899219 456.1610066 398.11493825 470.94840796q-11.03537401 22.0707488-33.98895263 57.82536109l28.25055759 12.35961914q5.29697974 2.64848948 32.88541554 14.1252788t29.79550999 12.35961914q1.76565967 0.4414153 4.63485717 11.25608205t1.9863677 13.46315623zM371.18862501 377.80984911q1.32424512 6.62122487-1.76566043 12.35961914-5.29697974 10.15254418-22.07074802 16.77376906-13.24244897 5.29697974-26.48489794 5.29697974-11.47678931-1.32424512-21.62933349-11.47678932-6.17980958-6.62122487-7.94547-18.09801341l0.4414153-1.32424513q1.32424512 1.32424512 8.60759179 2.20707496t11.69749657 0 25.60206811-7.06263939q15.89093922-5.29697974 24.27782376-6.17980958 7.5040547 0 9.26971435 7.50405393z m308.10764869 56.94253126l27.80914307 100.20119826-61.35668118-18.53942872zM190.20848704 787.88435571l306.34198903-102.40827244V229.93583473L190.20848704 332.78552246v455.09883325z m547.79597758-139.92854516l45.02432665 13.68386427-79.89610989-290.00963528-44.14149681-13.6838635-95.34563305 236.59842333 45.02432665 13.68386427 19.86367384-48.55564673 93.13855808 28.69197289zM515.97273462 223.31460986l252.93077785 81.22035423V136.79727587z m137.28005567 583.99200438l69.74356493 5.73839505-23.83640845 70.62639476-17.65659889-29.13338819q-57.38394578 36.63744212-121.83053097 47.6728169-25.60206811 5.29697974-40.16876221 5.29697974h-37.07885743q-34.87178246 0-88.06228637-17.21518358T313.36326392 852.7723562q-3.53132008-3.08990479-3.53132008-7.0626394 0-3.53132008 2.20707495-5.95910231t5.73839504-2.42778222q1.76565967 0 7.94546923 3.31061205t13.46315623 7.28334744 9.04900709 4.85556443q32.22329298 16.33235376 70.4056875 27.1470205T488.16359155 890.73404345q41.93442187 0 73.71630032-6.40051684t69.30214963-22.29145606q6.62122487-3.08990479 13.463157-6.84193214t15.00810862-8.38688452 12.58032641-7.28334667z m197.75390624-476.28675143v476.28675143l-341.65518601-108.588082q-6.17980958 2.64848948-165.53061405 56.28040869T181.38018799 808.63085938q-5.73839427 0-7.94546923-5.73839428 0-0.4414153-0.44141529-1.32424513V325.72288306q1.32424512-3.97273462 1.76565965-4.41414991 2.20707496-2.64848948 8.82829983-4.85556444 47.2314016-15.89093922 65.77083031-22.0707488V124.87907203l246.30955298 87.40016381q0.88282983 0 70.8471028-24.27782298t139.48712986-47.89352417T777.29039622 116.4921875q8.82829906 0 8.82829983 9.26971435v184.51145728z" /></svg>