<?xml version="1.0" standalone="no"?><!DOCTYPE svg PUBLIC "-//W3C//DTD SVG 1.1//EN" "http://www.w3.org/Graphics/SVG/1.1/DTD/svg11.dtd"><svg class="icon" width="200px" height="200.00px" viewBox="0 0 1024 1024" version="1.1" xmlns="http://www.w3.org/2000/svg"><path d="M145.36425781 172.86029053h733.2706604v164.98608398H145.36343383V172.8611145zM145.36425781 374.51077271h219.98144531v219.98062133H145.36343383V374.51159667zM145.36425781 631.15496826h219.98144531v219.98226929H145.36343383V631.15579224zM402.00845337 374.51077271h219.98226929v219.98062133H402.0076294V374.51159667zM402.00845337 631.15496826h219.98226929v219.98226929H402.0076294V631.15579224zM658.6534729 374.51077271H878.63574219v219.98062133H658.6534729V374.51159667zM658.6534729 631.15496826H878.63574219v219.98226929H658.6534729V631.15579224zM145.36425781 172.86029053h733.2706604v164.98608398H145.36343383V172.8611145zM145.36425781 374.51077271h219.98144531v219.98062133H145.36343383V374.51159667zM145.36425781 631.15496826h219.98144531v219.98226929H145.36343383V631.15579224zM402.00845337 374.51077271h219.98226929v219.98062133H402.0076294V374.51159667zM402.00845337 631.15496826h219.98226929v219.98226929H402.0076294V631.15579224zM658.6534729 374.51077271H878.63574219v219.98062133H658.6534729V374.51159667zM658.6534729 631.15496826H878.63574219v219.98226929H658.6534729V631.15579224z" /></svg>